<?xml version="1.0" encoding="iso-8859-1"?>
<!-- Uploaded to: SVG Repo, www.svgrepo.com, Generator: SVG Repo Mixer Tools -->
<svg height="800px" width="800px" version="1.1" id="Layer_1" xmlns="http://www.w3.org/2000/svg" xmlns:xlink="http://www.w3.org/1999/xlink" 
	 viewBox="0 0 512 512" xml:space="preserve">
<path style="fill:#9ED368;" d="M512,256.006C512,397.402,397.394,512.004,256.004,512C114.606,512.004,0,397.402,0,256.006
	C-0.007,114.61,114.606,0,256.004,0C397.394,0,512,114.614,512,256.006z"/>
<path style="fill:#8BC052;" d="M502.908,323.627c-0.014-0.014-0.031-0.025-0.045-0.037
	c-0.252-0.271-135.868-135.993-136.126-136.258c-0.241-0.249-0.539-0.411-0.784-0.653c-0.253-0.27-67.412-67.538-67.672-67.804
	C287.637,107.942,273.412,102.4,256,102.4c-17.331,0-31.506,5.535-42.134,16.447c-15.547,15.964-19.041,39.066-19.804,50.175
	C148.725,171.628,128,202.828,128,231.906c0,17.243,6.803,35.003,19.793,48.19c0.474,0.512,37.868,37.872,38.195,38.211
	c-0.361,1.279-0.467,2.611-0.001,3.889l30.4,83.199c0.464,1.266,1.297,2.318,2.353,3.054c0.42,0.574,0.911,1.087,1.488,1.488
	c0.42,0.574,93.177,93.351,93.754,93.753c0.375,0.514,0.83,0.95,1.329,1.331C406.256,483.443,478.38,413.396,502.908,323.627z"/>
<path style="fill:#F4F6F9;" d="M311.734,300.8C358.672,300.8,384,265.354,384,232c0-29.575-17.506-61.1-66.068-63.563
	c-0.769-11.012-4.262-33.759-19.65-49.563C287.637,107.943,273.412,102.4,256,102.4c-17.331,0-31.506,5.534-42.134,16.447
	c-15.547,15.963-19.041,39.066-19.803,50.175C148.725,171.628,128,202.828,128,231.906c0,33.397,25.328,68.894,72.266,68.894H230.4
	v12.8H192c-2.091,0-4.047,1.019-5.244,2.732c-1.2,1.712-1.485,3.903-0.769,5.866l30.4,83.2c0.925,2.525,3.325,4.203,6.013,4.203
	h60.8c2.688,0,5.088-1.678,6.013-4.203l30.4-83.2c0.716-1.963,0.431-4.154-0.769-5.866c-1.197-1.713-3.153-2.732-5.244-2.732h-38.4
	v-12.8H311.734z M140.8,231.906c0-25.015,18.387-50.259,59.466-50.259c1.722,0,3.375-0.7,4.578-1.932
	c1.203-1.234,1.859-2.907,1.819-4.628c-0.006-0.3-0.5-30.037,16.419-47.356c8.122-8.316,19.197-12.531,32.918-12.531
	c13.803,0,24.925,4.225,33.066,12.556c16.769,17.169,16.278,46.471,16.272,46.769c-0.041,1.722,0.615,3.394,1.819,4.625
	c1.203,1.234,2.853,1.934,4.578,1.934c37.234,0,59.466,19.035,59.466,50.915c0,22.51-15.838,56-59.466,56H200.266
	C156.638,288,140.8,254.453,140.8,231.906z M278.725,396.8h-51.85l-25.722-70.4h103.294L278.725,396.8z M262.4,313.6h-19.2v-12.8
	h19.2V313.6z"/>
</svg>